<svg id="cancel_black_24dp_1_" data-name="cancel_black_24dp (1)" xmlns="http://www.w3.org/2000/svg" width="56.923" height="56.923" viewBox="0 0 56.923 56.923">
  <path id="Trazado_4378" data-name="Trazado 4378" d="M0,0H56.923V56.923H0Z" fill="none" opacity="0.87"/>
  <path id="Trazado_4379" data-name="Trazado 4379" d="M25.718,2A23.718,23.718,0,1,0,49.436,25.718,23.7,23.7,0,0,0,25.718,2Zm10.2,33.917a2.362,2.362,0,0,1-3.344,0l-6.854-6.854-6.854,6.854a2.365,2.365,0,0,1-3.344-3.344l6.854-6.854-6.854-6.854a2.365,2.365,0,0,1,3.344-3.344l6.854,6.854,6.854-6.854a2.365,2.365,0,1,1,3.344,3.344l-6.854,6.854,6.854,6.854a2.406,2.406,0,0,1,0,3.344Z" transform="translate(2.744 2.744)" fill="#666b76"/>
</svg>
