<?xml version="1.0" standalone="no"?>
<!DOCTYPE svg PUBLIC "-//W3C//DTD SVG 20010904//EN"
 "http://www.w3.org/TR/2001/REC-SVG-20010904/DTD/svg10.dtd">
<svg version="1.0" xmlns="http://www.w3.org/2000/svg"
 width="848.000000pt" height="848.000000pt" viewBox="0 0 848.000000 848.000000"
 preserveAspectRatio="xMidYMid meet">
<metadata>
Created by potrace 1.14, written by Peter Selinger 2001-2017
</metadata>
<g transform="translate(0.000000,848.000000) scale(0.100000,-0.100000)"
fill="#000000" stroke="none">
<path d="M5038 8474 c-3 -2 -20 -6 -39 -9 -50 -7 -91 -15 -114 -22 -11 -4 -24
-7 -30 -8 -43 -5 -206 -69 -247 -98 -16 -10 -28 -16 -28 -12 0 5 -126 -78
-168 -110 -35 -28 -189 -183 -199 -201 -32 -59 -45 -150 -31 -219 17 -82 36
-107 258 -336 52 -54 169 -175 260 -270 91 -94 185 -191 209 -215 l43 -44
-118 7 c-231 12 -481 4 -689 -22 -33 -4 -73 -9 -90 -11 -57 -7 -90 -12 -125
-18 -19 -4 -48 -9 -65 -11 -16 -2 -61 -11 -100 -20 -38 -9 -79 -18 -90 -20
-11 -3 -29 -7 -40 -9 -11 -3 -35 -9 -53 -15 -18 -5 -35 -10 -37 -10 -3 0 -31
-7 -63 -16 -31 -10 -64 -19 -72 -21 -19 -4 -195 -67 -233 -82 -16 -7 -33 -12
-38 -12 -5 0 -17 -4 -27 -10 -9 -5 -35 -17 -57 -26 -167 -71 -494 -244 -503
-266 -2 -4 -8 -8 -14 -8 -11 0 -208 -135 -247 -169 -13 -12 -27 -21 -30 -21
-3 0 -25 -17 -48 -39 -24 -21 -59 -51 -78 -66 -39 -29 -270 -257 -320 -315
-87 -100 -199 -247 -260 -340 -38 -58 -72 -107 -75 -110 -4 -3 -13 -18 -21
-35 -9 -16 -30 -56 -48 -88 -66 -118 -138 -270 -129 -273 2 -1 -6 -11 -16 -23
-11 -12 -16 -21 -13 -21 3 0 -7 -30 -22 -67 -49 -115 -125 -360 -157 -508 -19
-85 -53 -286 -60 -358 -3 -26 -7 -65 -10 -85 -8 -63 -14 -582 -6 -582 4 0 7
-26 8 -58 0 -50 10 -167 14 -167 0 0 3 -21 5 -46 4 -48 13 -104 20 -129 2 -8
7 -35 10 -60 4 -24 8 -47 10 -50 2 -3 6 -21 9 -40 3 -19 10 -50 15 -68 5 -18
10 -36 11 -40 3 -22 13 -60 21 -82 4 -14 11 -36 13 -50 3 -14 14 -49 25 -78
11 -29 19 -54 19 -55 -1 -4 13 -51 22 -72 4 -11 18 -47 31 -80 12 -33 27 -66
32 -72 5 -7 7 -13 3 -13 -3 0 10 -31 29 -70 19 -38 32 -70 28 -70 -5 0 -3 -4
2 -8 11 -7 52 -91 53 -106 0 -5 4 -12 9 -15 5 -3 29 -42 53 -86 40 -75 185
-304 199 -315 3 -3 17 -22 31 -42 14 -21 28 -38 33 -38 4 0 7 -6 7 -14 0 -8 4
-16 9 -18 4 -2 32 -32 62 -68 87 -106 284 -311 350 -364 13 -11 40 -33 59 -50
20 -17 50 -42 68 -56 18 -14 48 -37 65 -52 18 -15 35 -28 39 -28 4 0 13 -6 20
-13 42 -42 339 -227 448 -278 25 -12 81 -39 124 -60 44 -22 85 -39 92 -39 7 0
14 -4 16 -10 2 -5 12 -11 23 -13 11 -2 31 -9 45 -14 14 -6 45 -19 70 -28 25
-9 54 -20 65 -25 54 -22 275 -89 345 -105 3 0 23 -5 45 -10 22 -4 45 -9 50
-11 46 -13 260 -50 343 -60 26 -2 57 -7 70 -9 108 -19 533 -26 683 -12 76 7
222 25 259 32 14 2 41 7 60 9 19 3 45 7 56 10 12 2 39 7 60 11 46 8 69 13 69
15 0 1 9 3 20 4 11 2 40 9 65 16 25 6 54 14 65 16 48 9 219 61 320 96 61 22
126 44 145 51 19 6 38 16 42 22 4 5 8 7 8 3 0 -18 390 171 525 254 17 10 38
21 48 24 9 4 17 10 17 15 0 5 5 9 11 9 5 0 37 18 69 40 32 22 64 40 69 40 6 0
11 3 11 8 0 4 17 18 38 32 40 26 220 158 238 175 6 5 30 26 54 45 23 19 55 46
70 60 15 14 45 41 66 60 83 74 113 136 109 227 -4 78 -29 120 -137 235 -48 51
-99 107 -114 123 -15 17 -81 88 -147 158 -67 71 -129 138 -140 150 -95 110
-269 283 -301 300 -30 15 -60 21 -111 21 -77 0 -130 -22 -191 -79 -36 -33
-145 -122 -180 -145 -31 -21 -186 -123 -209 -137 -48 -29 -286 -143 -350 -166
-38 -14 -79 -29 -90 -33 -11 -4 -22 -8 -25 -9 -3 -1 -38 -11 -78 -24 -112 -34
-260 -65 -372 -77 -19 -2 -53 -6 -75 -10 -86 -12 -309 -5 -335 11 -5 3 -10 1
-10 -5 0 -6 -4 -9 -9 -6 -5 3 -54 15 -110 25 -112 22 -269 67 -288 83 -7 6
-13 8 -13 5 0 -11 -163 65 -264 122 -159 91 -342 244 -466 390 -162 192 -315
476 -376 701 -44 162 -47 172 -59 255 -3 23 -7 50 -9 62 -22 113 -22 453 0
568 2 11 7 40 10 65 11 87 66 286 109 395 49 125 103 237 117 246 5 3 8 8 6
11 -3 5 110 181 139 215 10 12 33 40 52 62 44 54 145 156 205 206 26 22 53 45
59 50 28 24 149 105 157 105 6 0 10 4 10 9 0 5 8 11 18 14 9 3 41 20 70 36
116 67 321 141 497 180 93 20 241 35 355 35 78 -1 221 -12 227 -18 1 -1 -81
-83 -183 -182 -269 -259 -387 -376 -402 -399 -51 -80 -64 -198 -32 -286 19
-52 27 -65 67 -109 78 -87 150 -155 218 -205 22 -17 42 -33 43 -37 2 -5 10 -8
18 -8 8 0 14 -4 14 -10 0 -5 7 -10 15 -10 9 0 18 -7 21 -15 4 -8 10 -13 14
-10 5 3 16 -3 26 -12 10 -10 18 -16 18 -14 2 9 46 -11 46 -20 0 -6 5 -7 10 -4
6 3 10 1 10 -6 0 -7 3 -9 7 -6 3 4 13 1 21 -6 13 -10 14 -9 7 3 -6 10 -2 9 12
-3 12 -10 30 -20 40 -22 10 -2 19 -4 21 -5 1 -2 5 -3 10 -5 4 -1 14 -5 23 -9
9 -4 27 -8 40 -10 13 -2 32 -7 42 -11 10 -4 31 -8 47 -9 17 0 30 -4 30 -7 0
-7 21 -9 120 -12 28 -1 50 -6 50 -10 0 -5 5 -5 11 -1 6 3 50 7 97 9 124 3 124
3 116 18 -6 9 -4 9 8 -1 12 -9 23 -10 43 -2 15 6 30 8 33 6 2 -3 12 -1 21 3 9
5 33 12 54 15 21 3 47 11 58 16 10 6 19 7 19 3 0 -4 4 -2 9 5 4 7 14 15 22 16
14 3 52 17 102 39 15 7 27 15 27 19 0 5 3 8 8 7 14 -2 52 13 52 21 0 4 13 13
28 19 15 7 40 23 55 37 15 13 30 25 34 26 18 4 93 78 93 92 0 4 7 5 16 2 8 -3
13 -2 10 2 -2 4 2 16 10 27 10 14 14 15 15 4 0 -8 4 -4 9 9 5 12 17 22 25 22
9 0 14 3 12 8 -4 7 42 57 53 57 3 0 4 3 3 8 -2 4 3 7 11 7 8 0 18 5 22 12 5 7
3 8 -6 3 -9 -6 -11 -4 -6 4 5 7 14 10 22 7 9 -3 11 0 7 11 -4 11 -2 14 5 9 7
-4 12 -2 12 4 0 6 10 15 23 20 12 5 16 9 9 9 -7 1 -10 6 -7 11 4 6 10 8 15 5
4 -3 15 7 24 20 10 14 22 23 28 19 6 -4 8 -3 5 3 -8 13 48 67 62 59 7 -5 8 -1
4 10 -4 12 -3 15 5 10 7 -4 12 -1 12 6 0 18 33 45 48 40 7 -2 12 0 11 5 -4 23
2 35 17 29 8 -3 12 -2 9 4 -3 6 -1 10 5 10 6 0 9 4 6 9 -3 4 6 13 19 19 14 7
25 16 25 22 0 6 5 8 10 5 6 -3 10 3 10 14 0 15 4 19 17 14 10 -4 14 -2 9 5 -3
6 3 16 14 22 11 6 20 17 20 25 0 9 6 12 17 8 9 -4 14 -2 10 4 -8 13 31 45 45
37 7 -4 8 -3 4 4 -4 7 8 27 27 47 33 34 56 47 41 23 -4 -7 -3 -8 5 -4 6 4 9
11 6 16 -7 11 24 42 36 35 5 -4 6 1 3 10 -4 9 -3 15 2 13 12 -3 73 60 65 68
-3 3 3 4 14 2 12 -2 20 3 20 12 0 8 8 14 16 14 9 -1 16 6 15 15 0 9 4 15 11
14 6 -2 15 7 18 18 4 12 13 18 20 15 9 -3 12 0 8 9 -3 10 5 18 22 25 18 7 25
15 21 26 -3 8 -2 13 3 10 5 -3 15 2 22 11 12 14 12 16 0 8 -10 -5 -12 -4 -7 3
4 7 13 12 21 12 8 0 17 5 21 12 5 7 3 8 -6 3 -8 -5 -11 -3 -8 6 3 8 11 13 17
12 6 -2 10 2 8 9 -1 7 3 12 10 13 6 0 15 4 20 9 5 5 3 6 -4 2 -7 -4 -13 -2
-13 3 0 6 5 11 10 11 6 0 10 6 10 14 0 8 5 18 12 22 8 5 9 1 4 -12 -6 -15 -5
-16 5 -7 10 10 9 16 -2 29 -9 12 -10 15 -1 10 8 -5 12 -1 12 10 0 10 3 14 7
11 7 -7 32 22 33 37 0 6 -7 1 -15 -10 -14 -18 -15 -17 -4 8 6 14 17 24 24 22
6 -3 12 2 12 10 0 8 -4 13 -8 11 -4 -3 -2 6 4 19 7 13 16 22 20 19 5 -3 6 4 2
16 -5 17 -3 20 12 14 15 -6 16 -4 5 9 -10 13 -10 18 1 30 7 7 12 19 10 25 -3
7 5 18 16 24 18 12 18 14 3 26 -12 8 -13 12 -4 13 8 0 10 5 6 12 -5 7 -2 9 7
6 10 -4 15 1 15 12 0 10 -4 16 -8 14 -15 -10 -8 9 10 23 9 8 12 12 5 9 -7 -4
-11 1 -10 14 1 10 8 22 15 25 11 4 12 8 2 20 -10 12 -10 15 0 15 9 0 9 4 -1
17 -12 15 -12 16 5 10 17 -7 17 -6 5 9 -11 13 -11 18 -1 21 6 3 12 9 12 14 0
6 -4 8 -8 5 -4 -2 -8 8 -7 24 0 15 3 26 7 23 5 -2 8 3 8 12 0 9 -4 14 -8 11
-10 -6 -9 30 0 40 4 3 4 13 1 22 -4 10 -2 13 5 8 8 -5 10 -2 6 8 -3 9 -9 14
-13 12 -10 -7 -7 58 4 66 6 5 5 8 -2 8 -7 0 -13 5 -13 11 0 5 5 7 10 4 6 -3
10 -1 10 4 0 6 -4 11 -9 11 -5 0 -14 30 -21 68 -7 37 -17 77 -21 90 -6 15 -5
21 1 17 6 -3 10 -2 10 4 0 5 -5 11 -11 13 -5 2 -11 18 -11 36 -1 18 -3 30 -6
27 -3 -3 -11 5 -17 18 -9 16 -9 26 -1 36 9 12 8 13 -3 6 -11 -6 -13 -3 -8 15
4 16 1 23 -14 27 -10 3 -19 10 -19 15 0 5 4 7 8 4 5 -3 9 1 9 9 0 8 -4 12 -8
10 -11 -7 -30 21 -33 49 -1 14 -6 29 -11 34 -4 4 -4 0 0 -8 8 -13 7 -13 -8 -1
-18 14 -24 36 -7 26 6 -3 7 1 4 10 -4 9 -9 14 -11 11 -10 -9 -35 24 -29 39 3
10 0 12 -11 8 -12 -5 -15 -2 -11 8 3 8 0 23 -8 34 -8 10 -14 14 -14 9 0 -6 3
-14 8 -20 4 -5 -1 -1 -10 9 -10 11 -15 23 -12 28 3 5 2 9 -3 8 -20 -3 -27 2
-13 11 12 8 11 10 -7 10 -12 0 -25 5 -29 12 -4 6 -3 8 4 4 6 -3 14 -2 17 4 4
6 3 10 -2 9 -21 -4 -33 2 -33 17 0 9 -5 12 -12 8 -7 -5 -9 -2 -5 9 4 12 2 14
-10 10 -13 -5 -15 -2 -10 12 7 16 5 16 -10 4 -11 -9 -14 -10 -9 -1 4 7 1 15
-8 18 -9 3 -16 13 -16 21 0 8 -5 11 -12 7 -7 -5 -9 -2 -5 9 4 11 2 14 -9 10
-13 -5 -19 8 -15 31 1 5 -6 6 -15 2 -12 -5 -15 -2 -10 9 3 9 2 13 -3 10 -5 -3
-12 4 -16 15 -3 11 -11 20 -17 20 -6 0 -5 -7 3 -17 13 -16 12 -17 -4 -4 -10 8
-16 20 -13 27 3 8 0 11 -10 7 -10 -4 -12 0 -7 13 4 12 3 15 -5 10 -8 -4 -12 0
-12 11 0 11 -3 14 -8 7 -4 -6 -13 -4 -24 7 -12 13 -13 19 -5 23 7 2 4 5 -6 5
-10 1 -15 6 -12 11 3 6 0 10 -9 10 -8 0 -37 24 -65 53 -186 195 -661 685 -731
755 -78 78 -181 162 -198 162 -6 0 -12 4 -14 8 -3 7 -96 65 -108 67 -3 1 -27
11 -55 24 -72 33 -85 38 -130 51 -22 6 -47 14 -55 18 -8 3 -22 6 -30 7 -8 1
-40 8 -70 15 -50 12 -353 24 -362 14z"/>
<path d="M7405 6580 c3 -5 8 -10 11 -10 2 0 4 5 4 10 0 6 -5 10 -11 10 -5 0
-7 -4 -4 -10z"/>
<path d="M7450 6441 c0 -6 4 -13 10 -16 6 -3 7 1 4 9 -7 18 -14 21 -14 7z"/>
<path d="M7470 6341 c0 -6 4 -13 10 -16 6 -3 7 1 4 9 -7 18 -14 21 -14 7z"/>
<path d="M6849 5003 c-13 -16 -12 -17 4 -4 9 7 17 15 17 17 0 8 -8 3 -21 -13z"/>
<path d="M6469 4633 c-13 -16 -12 -17 4 -4 9 7 17 15 17 17 0 8 -8 3 -21 -13z"/>
</g>
</svg>
